<svg width="980" height="551" xmlns="http://www.w3.org/2000/svg" xmlns:xlink="http://www.w3.org/1999/xlink">
<path fill="#ff595e" d="M 367.00 355.32 Q 367.00 355.32 369.24 354.06 371.48 352.81 373.86 352.90 376.25 352.99 379.46 353.26 382.66 353.54 385.31 353.65 387.96 353.76 391.47 354.04 394.98 354.33 398.46 354.44 401.93 354.56 405.25 354.61 408.57 354.66 412.38 354.91 416.18 355.17 419.43 355.51 422.69 355.85 425.57 355.99 428.46 356.12 431.29 356.18 434.13 356.24 436.85 356.51 439.57 356.77 442.20 356.87 444.83 356.98 447.57 357.02 450.30 357.07 453.76 357.09 457.23 357.11 460.31 357.11 463.40 357.12 466.33 357.13 469.25 357.13 472.01 357.37 474.76 357.60 476.96 357.70 479.17 357.79 481.25 357.83 483.33 357.87 486.02 359.39 488.72 360.91 488.72 360.92 488.72 360.92 488.72 360.93 488.72 360.93 485.96 362.40 483.21 363.87 481.06 363.83 478.90 363.79 476.57 363.68 474.24 363.58 471.74 363.36 469.24 363.13 466.31 363.13 463.39 363.12 460.29 363.11 457.19 363.11 453.70 363.09 450.20 363.07 447.40 363.02 444.59 362.97 441.79 362.86 438.98 362.74 436.49 362.49 434.00 362.24 431.09 362.18 428.17 362.12 425.11 361.97 422.06 361.82 418.92 361.49 415.78 361.15 412.13 360.90 408.48 360.66 405.10 360.60 401.73 360.55 398.11 360.43 394.50 360.31 391.10 360.03 387.70 359.76 384.92 359.64 382.14 359.52 379.08 359.25 376.02 358.98 373.42 358.88 370.82 358.77 368.91 357.05 367.00 355.34 367.00 355.33 Z" data-drauu_index="1"></path><path fill="#ff595e" d="M 432.71 367.34 Q 432.71 367.34 434.78 365.84 436.85 364.35 438.43 364.35 440.00 364.35 442.63 364.35 445.25 364.35 447.37 364.35 449.49 364.35 451.28 364.35 453.07 364.35 455.15 364.35 457.22 364.35 458.80 364.35 460.38 364.35 462.54 364.35 464.69 364.35 466.55 364.35 468.41 364.35 469.93 364.13 471.44 363.91 475.22 365.22 478.99 366.54 478.99 366.54 478.99 366.55 478.99 366.55 478.99 366.56 475.62 368.21 472.24 369.86 470.33 370.10 468.42 370.35 466.56 370.35 464.69 370.35 462.54 370.35 460.38 370.35 458.80 370.35 457.22 370.35 455.15 370.35 453.07 370.35 451.28 370.35 449.49 370.35 447.37 370.35 445.25 370.35 442.63 370.35 440.00 370.35 438.43 370.35 436.85 370.35 434.78 368.85 432.71 367.36 432.71 367.35 Z" data-drauu_index="4"></path><path fill="#ff595e" d="M 817.34 348.11 Q 817.34 348.11 819.16 346.86 820.98 345.61 823.28 345.93 825.58 346.26 827.96 346.64 830.34 347.01 832.94 347.39 835.54 347.78 838.05 348.18 840.56 348.57 842.65 348.73 844.74 348.88 846.93 349.19 849.13 349.51 851.42 349.87 853.71 350.23 855.27 350.37 856.83 350.51 858.40 350.83 859.96 351.15 862.34 351.30 864.73 351.45 866.23 351.49 867.73 351.52 869.72 351.52 871.70 351.53 873.49 351.53 875.28 351.54 876.98 351.17 878.68 350.79 880.23 351.02 881.78 351.26 885.04 352.87 888.29 354.49 888.29 354.50 888.29 354.50 888.29 354.51 888.29 354.51 886.12 355.94 883.94 357.37 882.34 357.27 880.74 357.17 879.18 357.02 877.62 356.87 875.62 357.20 873.61 357.53 871.49 357.53 869.37 357.53 867.63 357.51 865.88 357.49 864.00 357.41 862.13 357.33 859.20 356.91 856.28 356.49 854.53 356.32 852.77 356.16 850.52 355.80 848.27 355.45 846.28 355.16 844.29 354.86 841.95 354.68 839.62 354.50 837.14 354.11 834.66 353.71 832.04 353.33 829.41 352.94 827.07 352.57 824.73 352.20 822.43 351.87 820.14 351.55 818.73 349.84 817.33 348.12 817.33 348.12 Z" data-drauu_index="5"></path><path fill="#ff595e" d="M 121.00 343.30 Q 121.00 343.30 123.76 341.80 126.53 340.31 130.47 340.31 134.41 340.31 139.07 340.31 143.74 340.31 148.03 340.31 152.32 340.31 156.08 340.54 159.84 340.77 162.28 340.87 164.73 340.97 167.31 341.02 169.90 341.08 171.90 341.10 173.91 341.11 175.90 341.11 177.89 341.11 179.83 340.79 181.78 340.47 184.04 340.08 186.30 339.69 190.00 341.09 193.70 342.50 193.70 342.50 193.70 342.51 193.70 342.51 193.70 342.52 191.39 344.05 189.09 345.58 187.05 345.70 185.00 345.82 182.89 346.20 180.78 346.59 178.26 346.85 175.74 347.11 173.48 347.10 171.21 347.10 169.39 347.07 167.56 347.05 166.02 347.00 164.49 346.96 161.98 346.86 159.46 346.76 155.89 346.53 152.32 346.31 148.03 346.31 143.74 346.31 139.07 346.31 134.41 346.31 130.47 346.31 126.53 346.31 123.76 344.81 121.00 343.32 121.00 343.31 Z" data-drauu_index="6"></path>
</svg>